{"glyphs":{"为":{"ha":1389,"x_min":49,"x_max":1280,"o":"m 77 800 l 587 800 q 606 1159 606 966 l 723 1159 q 704 800 723 958 l 1280 800 q 1256 108 1272 380 q 987 -146 1242 -146 q 736 -139 882 -146 q 716 -13 731 -86 q 967 -31 844 -31 q 1138 130 1130 -31 q 1162 694 1157 395 l 689 694 q 132 -196 589 96 q 49 -96 94 -149 q 570 694 471 153 l 77 694 l 77 800 m 722 450 l 796 516 q 1032 279 926 395 l 948 203 q 722 450 844 326 m 174 1068 l 247 1136 q 464 935 359 1038 l 381 858 q 174 1068 281 968 z "},"了":{"ha":1389,"x_min":72,"x_max":1278,"o":"m 659 649 q 1090 941 891 791 l 72 941 l 72 1053 l 1278 1053 l 1278 919 q 781 593 1035 752 l 781 94 q 730 -92 781 -40 q 544 -147 680 -146 q 323 -143 469 -147 q 301 -12 315 -75 q 534 -28 437 -26 q 659 96 659 -29 l 659 649 z "},"更":{"ha":1389,"x_min":23,"x_max":1373,"o":"m 23 -92 q 423 36 271 -50 q 213 246 307 116 l 284 300 l 179 300 l 179 869 l 655 869 q 656 994 656 927 l 72 994 l 72 1088 l 1317 1088 l 1317 994 l 761 994 q 760 869 761 926 l 1210 869 l 1210 234 l 1107 234 l 1107 300 l 727 300 q 615 53 692 140 q 1373 -45 887 -47 q 1317 -154 1339 -105 q 526 -22 779 -139 q 85 -188 370 -125 q 23 -92 58 -140 m 282 630 l 652 630 q 654 777 654 695 l 282 777 l 282 630 m 651 539 l 282 539 l 282 393 l 640 393 q 651 539 648 459 m 743 393 l 1107 393 l 1107 539 l 755 539 q 743 393 752 460 m 1107 777 l 760 777 q 758 630 759 694 l 1107 630 l 1107 777 m 514 98 q 622 300 587 161 l 290 300 q 514 98 383 170 z "},"好":{"ha":1389,"x_min":24,"x_max":1370,"o":"m 591 70 l 511 -16 q 359 123 433 56 q 90 -161 257 -31 q 27 -73 61 -119 q 283 191 189 45 q 79 366 177 284 q 168 767 127 538 l 24 767 l 24 869 l 185 869 q 227 1155 207 1003 l 336 1140 q 290 869 312 991 l 547 869 l 547 781 q 414 216 516 411 q 591 70 503 144 m 545 545 l 918 545 l 918 756 q 1164 962 1053 870 l 594 962 l 594 1061 l 1314 1061 l 1314 954 q 1025 709 1168 829 l 1025 545 l 1370 545 l 1370 446 l 1025 446 l 1025 12 q 850 -154 1025 -154 q 673 -151 793 -154 q 655 -41 666 -100 q 836 -54 777 -52 q 918 26 918 -54 l 918 446 l 545 446 l 545 545 m 442 767 l 272 767 q 189 394 224 508 q 332 281 260 338 q 442 767 424 470 z "},"的":{"ha":1389,"x_min":77,"x_max":1316,"o":"m 77 930 l 214 930 q 297 1155 264 1053 l 411 1122 q 328 930 368 1019 l 600 930 l 600 -150 l 491 -150 l 491 -44 l 186 -44 l 186 -159 l 77 -159 l 77 930 m 620 652 q 836 1155 747 854 l 949 1126 q 879 934 915 1024 l 1316 934 q 1289 56 1299 237 q 1065 -157 1279 -157 q 814 -149 941 -157 q 792 -28 806 -81 l 796 -28 q 1044 -47 932 -47 q 1177 83 1168 -47 q 1199 832 1192 286 l 836 832 q 713 602 777 701 q 620 652 677 627 m 186 58 l 491 58 l 491 401 l 186 401 l 186 58 m 491 828 l 186 828 l 186 498 l 491 498 l 491 828 m 739 559 l 822 621 q 1062 313 972 443 l 962 242 q 739 559 865 399 z "},"生":{"ha":1389,"x_min":18,"x_max":1364,"o":"m 27 3 l 656 3 l 656 349 l 176 349 l 176 454 l 656 454 l 656 767 l 298 767 q 91 473 208 604 q 18 568 62 517 q 320 1091 209 782 l 431 1061 q 352 871 395 962 l 656 871 l 656 1159 l 773 1159 l 773 871 l 1291 871 l 1291 767 l 773 767 l 773 454 l 1253 454 l 1253 349 l 773 349 l 773 3 l 1364 3 l 1364 -98 l 27 -98 l 27 3 z "},"活":{"ha":1389,"x_min":9,"x_max":1370,"o":"m 481 399 l 818 399 l 818 627 l 391 627 l 391 730 l 818 730 l 818 958 q 456 942 652 949 q 435 1045 446 991 q 1305 1101 902 1057 l 1326 994 q 928 964 1162 977 l 928 730 l 1370 730 l 1370 627 l 928 627 l 928 399 l 1264 399 l 1264 -184 l 1158 -184 l 1158 -102 l 587 -102 l 587 -184 l 481 -184 l 481 399 m 1158 302 l 587 302 l 587 -5 l 1158 -5 l 1158 302 m 221 383 q 336 329 290 347 q 180 -168 256 74 l 60 -112 q 221 383 153 113 m 75 785 q 334 611 214 701 q 259 513 293 557 q 9 698 109 634 l 75 785 m 140 1137 q 384 956 270 1048 q 309 863 347 909 q 72 1057 183 973 l 140 1137 z "},"创":{"ha":1389,"x_min":19,"x_max":1284,"o":"m 526 1139 l 509 1110 q 840 789 681 951 l 765 705 q 456 1023 620 866 q 182 672 323 813 l 739 672 q 726 408 731 484 q 541 205 719 205 q 365 210 469 205 q 346 318 357 269 q 519 302 437 303 q 624 425 617 300 q 632 577 628 490 l 273 577 l 273 33 q 354 -43 273 -43 l 576 -43 q 697 28 684 -43 q 722 191 713 93 q 829 151 774 169 q 795 -14 815 62 q 604 -140 761 -140 l 334 -140 q 167 25 167 -140 l 167 656 q 81 581 123 615 q 19 679 41 648 q 401 1139 241 848 l 526 1139 m 1176 1129 l 1284 1129 l 1284 2 q 1120 -165 1284 -163 q 907 -163 1063 -165 q 886 -40 901 -101 q 1088 -52 1029 -52 q 1176 35 1176 -52 l 1176 1129 m 997 173 l 892 173 l 892 1008 l 997 1008 l 997 173 z "},"新":{"ha":1389,"x_min":19,"x_max":1371,"o":"m 780 1041 q 1298 1097 1061 1044 l 1333 992 q 876 946 1065 957 l 876 630 l 1371 630 l 1371 538 l 1177 538 l 1177 -173 l 1077 -173 l 1077 538 l 876 538 l 876 471 q 677 -177 876 55 q 605 -90 644 -135 q 780 475 780 101 l 780 1041 m 57 432 l 334 432 l 334 561 l 431 561 l 431 432 l 697 432 l 697 345 l 431 345 l 431 -9 q 293 -153 431 -153 q 161 -151 235 -153 q 146 -48 156 -106 q 270 -56 225 -56 q 334 13 334 -56 l 334 345 l 57 345 l 57 432 m 19 686 l 237 686 q 129 843 180 777 l 202 895 q 317 741 247 840 l 241 686 l 420 686 q 556 896 494 792 l 652 842 q 527 686 587 757 l 732 686 l 732 599 l 19 599 l 19 686 m 62 1000 l 355 1000 q 289 1121 326 1056 l 376 1162 q 454 1022 418 1093 l 409 1000 l 697 1000 l 697 913 l 62 913 l 62 1000 m 161 284 l 254 241 q 109 -36 180 87 q 19 13 69 -12 q 161 284 85 116 m 552 277 q 685 87 628 174 l 598 28 q 472 224 538 132 l 552 277 z "},"、":{"ha":1389,"x_min":86,"x_max":419,"o":"m 419 -90 l 338 -172 q 86 66 223 -47 l 158 141 q 419 -90 327 5 z "},"智":{"ha":1389,"x_min":14,"x_max":1287,"o":"m 245 431 l 1154 431 l 1154 -185 l 1054 -185 l 1054 -124 l 346 -124 l 346 -185 l 245 -185 l 245 431 m 769 1041 l 1287 1041 l 1287 486 l 1187 486 l 1187 568 l 869 568 l 869 486 l 769 486 l 769 1041 m 43 795 l 345 795 q 358 939 355 857 l 224 939 q 99 800 171 865 q 35 881 73 838 q 232 1162 179 1000 l 331 1140 q 279 1026 309 1080 l 685 1026 l 685 939 l 460 939 q 448 795 456 859 l 726 795 l 726 709 l 430 709 q 422 683 426 695 q 716 520 557 616 l 654 440 q 384 604 515 536 q 76 371 292 460 q 14 462 50 413 q 321 709 256 551 l 43 709 l 43 795 m 1054 344 l 346 344 l 346 195 l 1054 195 l 1054 344 m 346 -37 l 1054 -37 l 1054 111 l 346 111 l 346 -37 m 1187 954 l 869 954 l 869 654 l 1187 654 l 1187 954 z "},"慧":{"ha":1389,"x_min":54,"x_max":1371,"o":"m 180 234 l 1092 234 l 1092 322 l 224 322 l 224 395 l 1092 395 l 1092 484 l 180 484 l 180 557 l 1192 557 l 1192 127 l 1092 127 l 1092 161 l 180 161 l 180 234 m 54 715 l 335 715 l 335 805 l 119 805 l 119 876 l 335 876 l 335 964 l 87 964 l 87 1034 l 335 1034 l 335 1133 l 430 1133 l 430 1034 l 659 1034 l 659 964 l 430 964 l 430 876 l 643 876 l 643 805 l 430 805 l 430 715 l 669 715 l 669 645 l 430 645 l 430 599 l 335 599 l 335 645 l 54 645 l 54 715 m 719 715 l 935 715 l 935 805 l 760 805 l 760 876 l 935 876 l 935 964 l 730 964 l 730 1034 l 935 1034 l 935 1131 l 1029 1131 l 1029 1034 l 1299 1034 l 1299 964 l 1029 964 l 1029 876 l 1267 876 l 1267 805 l 1029 805 l 1029 715 l 1320 715 l 1320 645 l 1029 645 l 1029 597 l 935 597 l 935 645 l 719 645 l 719 715 m 378 120 l 481 120 l 481 -28 q 538 -78 481 -78 l 822 -78 q 939 -48 911 -78 q 970 81 967 -14 q 1076 40 1015 62 q 1010 -124 1057 -86 q 844 -168 964 -168 l 507 -168 q 378 -36 378 -168 l 378 120 m 208 119 l 298 75 q 142 -150 227 -50 q 58 -94 113 -128 q 208 119 151 3 m 1135 55 l 1214 111 q 1371 -89 1302 9 l 1286 -149 q 1135 55 1211 -36 m 614 111 l 685 159 q 802 39 745 102 l 722 -18 q 614 111 671 51 z "},"F":{"ha":738,"x_min":136,"x_max":677,"o":"m 677 930 l 271 930 l 271 578 l 647 578 l 647 459 l 271 459 l 271 0 l 136 0 l 136 1050 l 677 1050 l 677 930 z "},"o":{"ha":883,"x_min":68,"x_max":814,"o":"m 68 367 q 172 660 68 553 q 454 768 276 768 q 719 664 623 768 q 814 378 814 561 q 712 92 814 201 q 437 -18 610 -18 q 169 88 269 -18 q 68 367 68 194 m 204 371 q 270 167 204 241 q 446 92 335 92 q 619 165 559 92 q 679 374 679 238 q 619 585 679 511 q 446 658 559 658 q 269 581 334 658 q 204 371 204 505 z "},"r":{"ha":530,"x_min":119,"x_max":521,"o":"m 521 618 q 429 642 488 642 q 302 570 352 642 q 252 380 252 498 l 252 0 l 119 0 l 119 750 l 252 750 l 252 597 l 254 597 q 451 763 311 763 q 521 753 496 763 l 521 618 z "},"a":{"ha":768,"x_min":63,"x_max":666,"o":"m 136 698 q 395 768 248 768 q 666 483 666 768 l 666 0 l 534 0 l 534 116 l 531 116 q 301 -18 453 -18 q 127 41 192 -18 q 63 201 63 100 q 312 446 63 411 l 534 477 q 382 661 534 661 q 136 570 248 661 l 136 698 m 359 353 q 232 307 267 340 q 197 212 197 273 q 235 124 197 158 q 335 90 273 90 q 478 151 422 90 q 534 304 534 212 l 534 376 l 359 353 z "},"b":{"ha":887,"x_min":119,"x_max":819,"o":"m 252 106 l 252 0 l 119 0 l 119 1110 l 252 1110 l 252 621 l 254 621 q 512 768 342 768 q 736 668 653 768 q 819 397 819 569 q 726 95 819 207 q 477 -18 633 -18 q 254 106 331 -18 l 252 106 m 251 309 q 310 155 251 218 q 458 92 369 92 q 623 174 564 92 q 683 399 683 255 q 627 588 683 517 q 475 658 572 658 q 314 588 378 658 q 251 410 251 518 l 251 309 z "},"e":{"ha":788,"x_min":68,"x_max":730,"o":"m 730 341 l 205 341 q 271 156 208 221 q 445 90 333 90 q 676 171 571 90 l 676 52 q 414 -18 577 -18 q 160 85 251 -18 q 68 372 68 189 q 169 656 68 544 q 417 768 269 768 q 647 673 564 768 q 730 408 730 578 l 730 341 m 597 448 q 549 605 596 549 q 415 661 501 661 q 278 602 336 661 q 205 448 220 543 l 597 448 z "},"t":{"ha":517,"x_min":31,"x_max":479,"o":"m 479 7 q 361 -16 435 -16 q 160 207 160 -16 l 160 640 l 31 640 l 31 750 l 160 750 l 160 930 l 292 972 l 292 750 l 479 750 l 479 640 l 292 640 l 292 231 q 317 125 292 157 q 401 93 342 93 q 479 118 446 93 l 479 7 z "},"l":{"ha":370,"x_min":118,"x_max":251,"o":"m 118 0 l 118 1110 l 251 1110 l 251 0 l 118 0 z "},"i":{"ha":370,"x_min":102,"x_max":271,"o":"m 102 1015 q 126 1074 102 1050 q 186 1098 151 1098 q 247 1074 222 1098 q 271 1015 271 1050 q 247 956 271 979 q 186 932 222 932 q 126 956 150 932 q 102 1015 102 979 m 118 0 l 118 750 l 251 750 l 251 0 l 118 0 z "},"f":{"ha":481,"x_min":38,"x_max":503,"o":"m 503 997 q 422 1017 466 1017 q 298 862 298 1017 l 298 750 l 473 750 l 473 640 l 298 640 l 298 0 l 166 0 l 166 640 l 38 640 l 38 750 l 166 750 l 166 868 q 236 1058 166 989 q 412 1126 305 1126 q 503 1114 469 1126 l 503 997 z "},",":{"ha":334,"x_min":28,"x_max":241,"o":"m 241 169 l 125 -193 l 28 -193 l 113 169 l 241 169 z "},"n":{"ha":856,"x_min":119,"x_max":753,"o":"m 753 0 l 621 0 l 621 427 q 452 658 621 658 q 308 593 364 658 q 252 428 252 528 l 252 0 l 119 0 l 119 750 l 252 750 l 252 626 l 254 626 q 500 768 339 768 q 688 689 624 768 q 753 458 753 610 l 753 0 z "},"v":{"ha":729,"x_min":9,"x_max":723,"o":"m 723 750 l 426 0 l 292 0 l 9 750 l 155 750 l 338 214 q 364 106 360 150 l 368 106 q 391 212 374 163 l 583 750 l 723 750 z "},"w":{"ha":1097,"x_min":17,"x_max":1080,"o":"m 1080 750 l 856 0 l 718 0 l 568 526 q 556 598 559 560 l 553 598 q 538 528 551 570 l 376 0 l 242 0 l 17 750 l 155 750 l 305 194 q 315 125 312 169 l 321 125 q 334 196 323 163 l 495 750 l 618 750 l 775 193 q 786 124 782 169 l 792 124 q 804 193 793 154 l 951 750 l 1080 750 z "},"s":{"ha":643,"x_min":77,"x_max":583,"o":"m 77 162 q 293 90 177 90 q 448 191 448 90 q 414 263 448 235 q 277 330 380 291 q 115 429 152 380 q 77 548 77 478 q 162 708 77 648 q 370 768 246 768 q 547 734 465 768 l 547 606 q 357 661 463 661 q 253 633 293 661 q 213 559 213 605 q 242 490 213 515 q 370 425 271 465 q 539 328 495 378 q 583 204 583 278 q 499 42 583 101 q 280 -18 414 -18 q 77 26 163 -18 l 77 162 z "},"d":{"ha":888,"x_min":68,"x_max":770,"o":"m 770 0 l 637 0 l 637 125 l 634 125 q 379 -18 552 -18 q 153 84 237 -18 q 68 357 68 185 q 163 655 68 543 q 412 768 258 768 q 634 648 565 768 l 637 648 l 637 1110 l 770 1110 l 770 0 m 637 446 q 578 597 637 536 q 432 658 519 658 q 265 579 326 658 q 204 363 204 500 q 263 165 204 238 q 419 92 321 92 q 576 164 515 92 q 637 342 637 235 l 637 446 z "},"m":{"ha":1301,"x_min":119,"x_max":1198,"o":"m 1198 0 l 1065 0 l 1065 431 q 1027 605 1065 553 q 903 658 989 658 q 777 589 829 658 q 725 427 725 521 l 725 0 l 592 0 l 592 444 q 427 658 592 658 q 301 593 351 658 q 252 427 252 528 l 252 0 l 119 0 l 119 750 l 252 750 l 252 631 l 254 631 q 488 768 334 768 q 621 726 564 768 q 701 614 679 685 q 951 768 785 768 q 1198 463 1198 768 l 1198 0 z "}}}
